<svg xmlns="http://www.w3.org/2000/svg" style="display:none">

  <symbol id="sprite-chevron-up" viewBox="0 0 24 24">
    <path fill="none" stroke="currentColor" stroke-width="2" stroke-linecap="round" stroke-linejoin="round" d="M4.5 15.75l7.5-7.5 7.5 7.5" />
  </symbol>

  <symbol id="sprite-phone" viewBox="0 0 24 24">
    <path fill="none" stroke="currentColor" stroke-width="1.5" stroke-linecap="round" stroke-linejoin="round" d="M2.25 6.75c0 8.284 6.716 15 15 15h2.25a2.25 2.25 0 002.25-2.25v-1.372c0-.516-.351-.966-.852-1.091l-4.423-1.106c-.44-.11-.902.055-1.173.417l-.97 1.293c-.282.376-.769.542-1.21.38a12.035 12.035 0 01-7.143-7.143c-.162-.441.004-.928.38-1.21l1.293-.97c.363-.271.527-.734.417-1.173L6.963 3.102a1.125 1.125 0 00-1.091-.852H4.5A2.25 2.25 0 002.25 4.5v2.25z" />
  </symbol>

  <symbol id="sprite-chat-bubble" viewBox="0 0 24 24">
    <path fill="none" stroke="currentColor" stroke-width="1.5" stroke-linecap="round" stroke-linejoin="round" d="M8.625 9.75a.375.375 0 11-.75 0 .375.375 0 01.75 0zm0 0H8.25m4.125 0a.375.375 0 11-.75 0 .375.375 0 01.75 0zm0 0H12m4.125 0a.375.375 0 11-.75 0 .375.375 0 01.75 0zm0 0h-.375m-13.5 3.01c0 1.6 1.123 2.994 2.707 3.227 1.087.16 2.185.283 3.293.369V21l4.184-4.183a1.14 1.14 0 01.778-.332 48.294 48.294 0 005.83-.498c1.585-.233 2.708-1.626 2.708-3.228V6.741c0-1.602-1.123-2.995-2.707-3.228A48.394 48.394 0 0012 3c-2.392 0-4.744.175-7.043.513C3.373 3.746 2.25 5.14 2.25 6.741v6.018z" />
  </symbol>

  <symbol id="sprite-envelope" viewBox="0 0 24 24">
    <path fill="none" stroke="currentColor" stroke-width="1.5" stroke-linecap="round" stroke-linejoin="round" d="M21.75 6.75v10.5a2.25 2.25 0 01-2.25 2.25h-15a2.25 2.25 0 01-2.25-2.25V6.75m19.5 0A2.25 2.25 0 0019.5 4.5h-15a2.25 2.25 0 00-2.25 2.25m19.5 0v.243a2.25 2.25 0 01-1.07 1.916l-7.5 4.615a2.25 2.25 0 01-2.36 0L3.32 8.91a2.25 2.25 0 01-1.07-1.916V6.75" />
  </symbol>

  <symbol id="sprite-map-pin" viewBox="0 0 24 24">
    <path fill="none" stroke="currentColor" stroke-width="1.5" stroke-linecap="round" stroke-linejoin="round" d="M15 10.5a3 3 0 11-6 0 3 3 0 016 0z" />
    <path fill="none" stroke="currentColor" stroke-width="1.5" stroke-linecap="round" stroke-linejoin="round" d="M19.5 10.5c0 7.142-7.5 11.25-7.5 11.25S4.5 17.642 4.5 10.5a7.5 7.5 0 1115 0z" />
  </symbol>

  <symbol id="sprite-clock" viewBox="0 0 24 24">
    <path fill="none" stroke="currentColor" stroke-width="1.5" stroke-linecap="round" stroke-linejoin="round" d="M12 6v6h4.5m4.5 0a9 9 0 11-18 0 9 9 0 0118 0z" />
  </symbol>

  <symbol id="sprite-whatsapp" viewBox="0 0 24 24">
    <path d="M17.472 14.382c-.297-.149-1.758-.867-2.03-.967-.273-.099-.471-.148-.67.15-.197.297-.767.966-.94 1.164-.173.199-.347.223-.644.075-.297-.15-1.255-.463-2.39-1.475-.883-.788-1.48-1.761-1.653-2.059-.173-.297-.018-.458.13-.606.134-.133.298-.347.446-.52.149-.174.198-.298.298-.497.099-.198.05-.371-.025-.52-.075-.149-.669-1.612-.916-2.207-.242-.579-.487-.5-.669-.51-.173-.008-.371-.01-.57-.01-.198 0-.52.074-.792.372-.272.297-1.04 1.016-1.04 2.479 0 1.462 1.065 2.875 1.213 3.074.149.198 2.096 3.2 5.077 4.487.709.306 1.262.489 1.694.625.712.227 1.36.195 1.871.118.571-.085 1.758-.719 2.006-1.413.248-.694.248-1.289.173-1.413-.074-.124-.272-.198-.57-.347m-5.421 7.403h-.004a9.87 9.87 0 01-5.031-1.378l-.361-.214-3.741.982.998-3.648-.235-.374a9.86 9.86 0 01-1.51-5.26c.001-5.45 4.436-9.884 9.888-9.884 2.64 0 5.122 1.03 6.988 2.898a9.825 9.825 0 012.893 6.994c-.003 5.45-4.437 9.884-9.885 9.884m8.413-18.297A11.815 11.815 0 0012.05 0C5.495 0 .16 5.335.157 11.892c0 2.096.547 4.142 1.588 5.945L.057 24l6.305-1.654a11.882 11.882 0 005.683 1.448h.005c6.554 0 11.89-5.335 11.893-11.893a11.821 11.821 0 00-3.48-8.413z"/>
  </symbol>

  <symbol id="sprite-check-circle" viewBox="0 0 24 24">
    <path fill="none" stroke="currentColor" stroke-width="1.5" stroke-linecap="round" stroke-linejoin="round" d="M9 12.75L11.25 15 15 9.75M21 12a9 9 0 11-18 0 9 9 0 0118 0z" />
  </symbol>

  <symbol id="sprite-heart" viewBox="0 0 24 24">
    <path fill="none" stroke="currentColor" stroke-width="1.5" stroke-linecap="round" stroke-linejoin="round" d="M21 8.25c0-2.485-2.099-4.5-4.688-4.5-1.935 0-3.597 1.126-4.312 2.733-.715-1.607-2.377-2.733-4.313-2.733C5.1 3.75 3 5.765 3 8.25c0 7.22 9 12 9 12s9-4.78 9-12z" />
  </symbol>

  <symbol id="sprite-face-smile" viewBox="0 0 24 24">
    <path fill="none" stroke="currentColor" stroke-width="1.5" stroke-linecap="round" stroke-linejoin="round" d="M15.182 15.182a4.5 4.5 0 01-6.364 0M21 12a9 9 0 11-18 0 9 9 0 0118 0zM9.75 9.75c0 .414-.168.75-.375.75S9 10.164 9 9.75s.168-.75.375-.75S9.75 9.336 9.75 9.75zm4.5 0c0 .414-.168.75-.375.75s-.375-.336-.375-.75.168-.75.375-.75.375.336.375.75z" />
  </symbol>

  <symbol id="sprite-eye" viewBox="0 0 24 24">
    <path fill="none" stroke="currentColor" stroke-width="1.5" stroke-linecap="round" stroke-linejoin="round" d="M2.036 12.322a1.012 1.012 0 010-.639C3.423 7.51 7.36 4.5 12 4.5c4.638 0 8.573 3.007 9.963 7.178.07.207.07.431 0 .639C20.577 16.49 16.64 19.5 12 19.5c-4.638 0-8.573-3.007-9.963-7.178z" />
    <path fill="none" stroke="currentColor" stroke-width="1.5" stroke-linecap="round" stroke-linejoin="round" d="M15 12a3 3 0 11-6 0 3 3 0 016 0z" />
  </symbol>

  <symbol id="sprite-cog" viewBox="0 0 24 24">
    <path fill="none" stroke="currentColor" stroke-width="1.5" stroke-linecap="round" stroke-linejoin="round" d="M9.594 3.94c.09-.542.56-.94 1.11-.94h2.593c.55 0 1.02.398 1.11.94l.213 1.281c.063.374.313.686.645.87.074.04.147.083.22.127.324.196.72.257 1.075.124l1.217-.456a1.125 1.125 0 011.37.49l1.296 2.247a1.125 1.125 0 01-.26 1.431l-1.003.827c-.293.24-.438.613-.431.992a6.759 6.759 0 010 .255c-.007.378.138.75.43.99l1.005.828c.424.35.534.954.26 1.43l-1.298 2.247a1.125 1.125 0 01-1.369.491l-1.217-.456c-.355-.133-.75-.072-1.076.124a6.57 6.57 0 01-.22.128c-.331.183-.581.495-.644.869l-.213 1.28c-.09.543-.56.941-1.11.941h-2.594c-.55 0-1.02-.398-1.11-.94l-.213-1.281c-.062-.374-.312-.686-.644-.87a6.52 6.52 0 01-.22-.127c-.325-.196-.72-.257-1.076-.124l-1.217.456a1.125 1.125 0 01-1.369-.49l-1.297-2.247a1.125 1.125 0 01.26-1.431l1.004-.827c.292-.24.437-.613.43-.992a6.932 6.932 0 010-.255c.007-.378-.138-.75-.43-.99l-1.004-.828a1.125 1.125 0 01-.26-1.43l1.297-2.247a1.125 1.125 0 011.37-.491l1.216.456c.356.133.751.072 1.076-.124.072-.044.146-.087.22-.128.332-.183.582-.495.644-.869l.214-1.281z" />
    <path fill="none" stroke="currentColor" stroke-width="1.5" stroke-linecap="round" stroke-linejoin="round" d="M15 12a3 3 0 11-6 0 3 3 0 016 0z" />
  </symbol>

  <symbol id="sprite-bolt" viewBox="0 0 24 24">
    <path fill="none" stroke="currentColor" stroke-width="1.5" stroke-linecap="round" stroke-linejoin="round" d="M3.75 13.5l10.5-11.25L12 10.5h8.25L9.75 21.75 12 13.5H3.75z" />
  </symbol>

  <symbol id="sprite-user-plus" viewBox="0 0 24 24">
    <path fill="none" stroke="currentColor" stroke-width="1.25" stroke-linecap="round" stroke-linejoin="round" d="M19 7.5v3m0 0v3m0-3h3m-3 0h-3m-2.25-4.125a3.375 3.375 0 11-6.75 0 3.375 3.375 0 016.75 0zM4 19.235v-.11a6.375 6.375 0 0112.75 0v.109A12.318 12.318 0 0110.374 21c-2.331 0-4.512-.645-6.374-1.766z" />
  </symbol>

  <symbol id="sprite-sparkles" viewBox="0 0 24 24">
    <path fill="none" stroke="currentColor" stroke-width="1.25" stroke-linecap="round" stroke-linejoin="round" d="M9.813 15.904L9 18.75l-.813-2.846a4.5 4.5 0 00-3.09-3.09L2.25 12l2.846-.813a4.5 4.5 0 003.09-3.09L9 5.25l.813 2.846a4.5 4.5 0 003.09 3.09L15.75 12l-2.846.813a4.5 4.5 0 00-3.09 3.09zM18.259 8.715L18 9.75l-.259-1.035a3.375 3.375 0 00-2.455-2.456L14.25 6l1.036-.259a3.375 3.375 0 002.455-2.456L18 2.25l.259 1.035a3.375 3.375 0 002.456 2.456L21.75 6l-1.035.259a3.375 3.375 0 00-2.456 2.456zM16.894 20.567L16.5 21.75l-.394-1.183a2.25 2.25 0 00-1.423-1.423L13.5 18.75l1.183-.394a2.25 2.25 0 001.423-1.423l.394-1.183.394 1.183a2.25 2.25 0 001.423 1.423l1.183.394-1.183.394a2.25 2.25 0 00-1.423 1.423z" />
  </symbol>

  <symbol id="sprite-adjustments" viewBox="0 0 24 24">
    <path fill="none" stroke="currentColor" stroke-width="1.25" stroke-linecap="round" stroke-linejoin="round" d="M10.5 6h9.75M10.5 6a1.5 1.5 0 11-3 0m3 0a1.5 1.5 0 10-3 0M3.75 6H7.5m3 12h9.75m-9.75 0a1.5 1.5 0 01-3 0m3 0a1.5 1.5 0 00-3 0m-3.75 0H7.5m9-6h3.75m-3.75 0a1.5 1.5 0 01-3 0m3 0a1.5 1.5 0 00-3 0m-9.75 0h9.75" />
  </symbol>

  <symbol id="sprite-search" viewBox="0 0 24 24">
    <path fill="none" stroke="currentColor" stroke-width="1.8" stroke-linecap="round" stroke-linejoin="round" d="M21 21l-5.197-5.197m0 0A7.5 7.5 0 1 0 5.197 15.803a7.5 7.5 0 0 0 10.606 0z" />
  </symbol>

  <symbol id="sprite-clock-circle" viewBox="0 0 24 24">
    <circle fill="none" stroke="currentColor" stroke-width="1.5" stroke-linecap="round" stroke-linejoin="round" cx="12" cy="12" r="10"/>
    <polyline fill="none" stroke="currentColor" stroke-width="1.5" stroke-linecap="round" stroke-linejoin="round" points="12 6 12 12 16 14"/>
  </symbol>

  <symbol id="sprite-trend-up" viewBox="0 0 24 24">
    <path fill="none" stroke="currentColor" stroke-width="1.3" stroke-linecap="round" stroke-linejoin="round" d="M2.25 18L9 11.25l4.306 4.307a11.95 11.95 0 015.814-5.519l2.74-1.22m0 0l-5.94-2.28m5.94 2.28l-2.28 5.941" />
  </symbol>

  <symbol id="sprite-sun" viewBox="0 0 24 24">
    <path fill="none" stroke="currentColor" stroke-width="1.3" stroke-linecap="round" stroke-linejoin="round" d="M12 3v2.25m6.364.386l-1.591 1.591M21 12h-2.25m-.386 6.364l-1.591-1.591M12 18.75V21m-4.773-4.227l-1.591 1.591M5.25 12H3m4.227-4.773L5.636 5.636M15.75 12a3.75 3.75 0 11-7.5 0 3.75 3.75 0 017.5 0z" />
  </symbol>

  <symbol id="sprite-wave-ornament" viewBox="0 0 100 20">
    <path fill="none" stroke="#C4A265" stroke-width="1" d="M0 10 Q25 2 50 10 Q75 18 100 10"/>
  </symbol>

</svg>
